<svg xmlns="http://www.w3.org/2000/svg" version="1.0" width="1107.000000pt" height="1280.000000pt" viewBox="0 0 1107.000000 1280.000000" preserveAspectRatio="xMidYMid meet">
<g transform="translate(0.000000,1280.000000) scale(0.100000,-0.100000)" fill="#dc143c" stroke="none">
<path d="M5370 12772 c-41 -15 -95 -39 -120 -54 -71 -41 -1109 -773 -1163 -819 -66 -57 -99 -109 -95 -151 3 -32 21 -44 698 -475 l695 -443 62 0 c69 0 170 32 238 77 145 94 1137 799 1169 830 84 81 97 136 44 176 -31 23 -1326 846 -1376 875 -31 17 -67 14 -152 -16z" fill="#dc143c"/>
<path d="M7276 11576 c-84 -31 -64 -17 -711 -470 -291 -204 -553 -394 -581 -423 -29 -29 -58 -68 -64 -89 -11 -32 -10 -39 6 -60 11 -13 327 -220 704 -459 l685 -435 56 0 c55 0 134 22 200 55 49 25 1149 798 1202 846 58 50 94 121 79 154 -7 14 -253 177 -699 461 l-688 438 -60 3 c-45 3 -77 -2 -129 -21z" fill="#dc143c"/>
<path d="M3545 11490 c-33 -11 -86 -35 -117 -53 -142 -86 -1128 -787 -1184 -842 -61 -60 -82 -103 -70 -143 5 -14 1177 -770 1369 -882 57 -34 151 -25 252 23 82 39 1172 799 1239 864 67 64 91 123 68 160 -4 6 -271 179 -592 384 -880 560 -795 509 -854 508 -28 0 -78 -9 -111 -19z" fill="#dc143c"/>
<path d="M9203 10355 c-29 -8 -78 -28 -110 -44 -60 -30 -1122 -772 -1204 -841 -56 -47 -95 -116 -86 -152 6 -22 130 -105 694 -464 378 -240 704 -441 724 -447 52 -13 134 7 227 54 66 33 1083 740 1195 830 56 45 97 106 97 145 0 26 -7 39 -32 57 -18 14 -331 215 -696 446 -730 465 -697 448 -809 416z" fill="#dc143c"/>
<path d="M5418 10301 c-31 -10 -76 -29 -100 -43 -57 -31 -1154 -802 -1192 -837 -40 -36 -86 -110 -86 -138 0 -13 13 -32 33 -48 17 -14 333 -216 701 -450 l670 -425 55 0 c74 0 177 38 264 96 106 70 1076 753 1121 788 60 48 98 109 94 153 l-3 37 -690 440 -690 439 -60 4 c-40 2 -79 -3 -117 -16z" fill="#dc143c"/>
<path d="M1656 10185 c-38 -13 -94 -41 -125 -61 -108 -71 -1096 -768 -1139 -802 -56 -46 -94 -111 -90 -153 3 -32 28 -49 653 -446 793 -505 739 -473 796 -473 62 0 161 31 229 73 98 59 1144 798 1183 835 42 40 77 100 77 130 0 10 -10 28 -22 39 -20 18 -1314 844 -1367 873 -34 17 -122 11 -195 -15z" fill="#dc143c"/>
<path d="M10914 9157 c-22 -12 -332 -231 -688 -485 -693 -497 -697 -500 -760 -632 l-31 -65 -3 -646 c-2 -417 1 -656 8 -673 15 -41 53 -53 106 -34 55 19 1309 914 1380 984 55 54 85 103 121 199 23 60 23 61 23 681 l0 621 -23 34 c-29 43 -74 49 -133 16z" fill="#dc143c"/>
<path d="M7351 9065 c-41 -15 -111 -50 -155 -79 -142 -93 -1079 -755 -1126 -795 -57 -48 -96 -117 -87 -153 6 -21 135 -107 699 -466 381 -241 705 -442 720 -446 42 -10 161 19 231 56 91 49 1164 805 1220 860 71 70 86 127 45 165 -13 11 -326 213 -697 448 -767 487 -709 459 -850 410z" fill="#dc143c"/>
<path d="M3541 8974 c-30 -8 -79 -28 -110 -44 -82 -44 -1158 -803 -1209 -853 -71 -69 -93 -136 -54 -169 17 -16 1322 -846 1363 -868 36 -20 131 -13 203 14 85 32 83 31 701 465 539 378 636 455 650 520 3 16 2 38 -4 49 -10 19 -1345 873 -1394 891 -37 14 -80 13 -146 -5z" fill="#dc143c"/>
<path d="M56 8761 c-15 -17 -16 -73 -14 -687 l3 -669 28 -57 c57 -115 87 -139 759 -590 348 -234 647 -432 663 -441 56 -28 98 -31 128 -7 l27 22 -2 671 -3 672 -30 59 c-56 111 -101 146 -777 599 -350 235 -649 432 -663 437 -43 16 -100 12 -119 -9z" fill="#dc143c"/>
<path d="M9039 7832 c-61 -29 -1251 -884 -1301 -935 -53 -54 -120 -180 -143 -272 -12 -49 -15 -153 -15 -625 0 -533 2 -567 19 -607 11 -23 28 -46 39 -52 32 -17 84 -13 122 10 119 73 1253 895 1293 938 28 29 65 87 88 135 67 140 70 177 67 788 -3 469 -5 537 -19 569 -31 67 -81 84 -150 51z" fill="#dc143c"/>
<path d="M5408 7756 c-37 -13 -84 -34 -105 -47 -75 -45 -1136 -795 -1178 -832 -56 -48 -92 -119 -77 -152 7 -15 250 -175 699 -461 640 -407 692 -438 740 -442 67 -6 167 25 249 75 140 86 1133 792 1180 838 29 29 57 67 64 89 11 34 10 41 -6 62 -11 13 -327 219 -704 459 l-685 435 -55 0 c-32 0 -83 -10 -122 -24z" fill="#dc143c"/>
<path d="M1941 7526 c-38 -41 -42 -118 -39 -712 l3 -559 26 -71 c32 -87 89 -174 143 -220 73 -60 1249 -847 1298 -868 57 -24 90 -16 122 27 21 28 21 37 24 625 2 395 -1 614 -8 648 -17 81 -72 185 -131 246 -39 40 -228 173 -666 467 -337 226 -626 417 -642 426 -46 23 -103 20 -130 -9z" fill="#dc143c"/>
<path d="M10905 7178 c-44 -25 -1282 -913 -1313 -942 -47 -44 -96 -128 -129 -221 l-28 -80 -3 -558 c-2 -397 0 -575 9 -615 19 -91 79 -134 142 -101 65 35 1289 919 1329 960 60 63 103 152 134 274 24 97 24 102 24 619 0 494 -1 524 -20 575 -11 30 -29 65 -41 78 -25 25 -70 30 -104 11z" fill="#dc143c"/>
<path d="M64 6845 l-24 -25 2 -657 3 -658 32 -65 c63 -127 77 -138 756 -593 348 -233 646 -432 664 -441 51 -26 107 -21 132 10 21 26 21 34 21 665 0 706 2 680 -66 786 -18 29 -52 70 -74 92 -42 40 -1243 852 -1317 890 -57 28 -98 27 -129 -4z" fill="#dc143c"/>
<path d="M6539 6034 c-371 -267 -687 -498 -702 -513 -38 -35 -74 -106 -100 -199 -20 -74 -21 -101 -25 -632 -3 -584 1 -654 40 -718 18 -29 25 -33 52 -30 21 3 236 152 701 487 369 266 681 493 694 505 35 31 86 148 107 246 17 77 19 137 19 635 0 500 -2 555 -18 608 -19 62 -46 97 -75 97 -10 0 -322 -219 -693 -486z" fill="#dc143c"/>
<path d="M3812 6380 c-52 -22 -53 -29 -50 -709 l3 -628 42 -84 c28 -56 59 -101 95 -136 58 -56 1252 -863 1326 -895 54 -24 95 -16 126 25 21 28 21 37 24 603 2 345 -1 603 -7 646 -12 86 -62 193 -121 261 -29 33 -228 172 -663 464 -342 230 -642 428 -666 440 -47 25 -72 27 -109 13z" fill="#dc143c"/>
<path d="M8410 5434 c-366 -261 -678 -487 -693 -502 -35 -33 -88 -143 -113 -232 -16 -58 -18 -121 -22 -614 -3 -579 0 -626 42 -688 19 -28 28 -33 62 -33 36 0 96 41 706 478 367 263 679 493 693 510 34 46 71 130 97 223 22 77 22 93 23 629 0 497 -2 555 -18 607 -18 60 -54 98 -91 98 -13 0 -304 -202 -686 -476z" fill="#dc143c"/>
<path d="M1957 5669 c-9 -5 -27 -29 -40 -52 l-22 -42 0 -570 c0 -445 3 -582 14 -625 20 -85 86 -213 133 -261 50 -52 1275 -877 1323 -892 38 -11 78 5 107 43 35 47 39 138 35 687 -3 466 -6 535 -21 587 -24 80 -76 182 -120 233 -24 28 -249 185 -654 456 -339 228 -631 421 -649 431 -36 18 -79 20 -106 5z" fill="#dc143c"/>
<path d="M10870 5322 c-67 -34 -1264 -896 -1306 -940 -52 -54 -115 -172 -141 -262 -16 -60 -18 -112 -18 -630 0 -557 0 -566 21 -611 29 -63 73 -79 136 -51 24 10 313 211 643 446 654 467 703 507 761 630 64 137 64 131 64 760 0 551 -1 571 -20 611 -31 64 -78 79 -140 47z" fill="#dc143c"/>
<path d="M52 5003 c-7 -3 -21 -22 -32 -44 -19 -37 -20 -61 -20 -641 l0 -603 28 -76 c33 -86 71 -146 134 -205 49 -48 1249 -856 1312 -885 81 -37 132 -16 147 61 11 61 11 1148 -1 1229 -13 92 -62 184 -134 256 -42 41 -252 187 -676 471 -338 226 -629 419 -647 428 -31 15 -84 20 -111 9z" fill="#dc143c"/>
<path d="M7162 4505 c-57 -25 -1244 -886 -1295 -940 -27 -27 -66 -79 -87 -115 -72 -122 -71 -104 -68 -792 3 -590 4 -617 22 -637 25 -28 93 -28 147 0 22 11 309 214 637 450 411 296 615 449 655 491 72 76 134 197 148 288 6 40 9 287 7 637 -3 563 -3 572 -24 600 -17 22 -30 28 -65 30 -24 2 -59 -4 -77 -12z" fill="#dc143c"/>
<path d="M3775 4476 c-14 -20 -15 -102 -13 -687 l3 -664 30 -60 c56 -112 109 -152 774 -599 344 -230 643 -427 665 -437 53 -24 88 -24 117 0 l24 19 0 664 0 663 -34 70 c-59 120 -103 154 -760 595 -332 223 -626 417 -654 433 -66 36 -130 37 -152 3z" fill="#dc143c"/>
<path d="M8966 3894 c-80 -44 -1197 -852 -1244 -900 -34 -36 -67 -86 -96 -147 -83 -171 -81 -152 -81 -762 0 -540 0 -540 22 -582 13 -23 33 -49 45 -57 33 -23 97 -20 139 7 20 12 302 212 626 445 628 450 633 454 699 584 84 166 97 283 92 843 -4 371 -7 437 -21 482 -30 91 -105 127 -181 87z" fill="#dc143c"/>
<path d="M1964 3736 c-19 -8 -38 -29 -50 -52 -18 -37 -19 -70 -22 -595 -3 -621 -1 -642 62 -776 19 -40 56 -96 83 -124 54 -57 1261 -874 1325 -896 53 -18 93 -2 121 51 22 41 22 41 22 626 0 540 -1 590 -18 645 -28 91 -82 186 -135 237 -39 38 -1222 842 -1287 875 -37 19 -70 22 -101 9z" fill="#dc143c"/>
<path d="M7158 2556 c-42 -15 -1 14 -733 -514 -602 -433 -658 -480 -716 -598 l-34 -69 -3 -663 -2 -663 26 -24 c35 -32 47 -31 119 8 85 46 1249 887 1314 950 58 55 108 127 134 195 15 38 17 109 17 697 0 642 0 655 -20 675 -23 23 -50 25 -102 6z" fill="#dc143c"/>
<path d="M3788 2473 c-52 -57 -53 -65 -53 -658 0 -545 0 -551 23 -630 30 -102 75 -186 132 -246 57 -60 1259 -868 1313 -883 52 -14 85 5 117 69 l25 50 0 555 c0 498 -2 562 -18 620 -26 97 -90 219 -139 268 -38 37 -1207 830 -1278 867 -46 24 -92 19 -122 -12z" fill="#dc143c"/>
</g>
</svg>